<?xml version="1.0" encoding="us-ascii" standalone="no"?><svg xmlns="http://www.w3.org/2000/svg" xmlns:xlink="http://www.w3.org/1999/xlink" contentStyleType="text/css" height="2377.0833px" preserveAspectRatio="none" style="width:818px;height:2377px;background:#FFFFFF;" version="1.1" viewBox="0 0 818 2377" width="818.75px" zoomAndPan="magnify"><defs/><g><text fill="#000000" font-family="sans-serif" font-size="29.1667" font-weight="bold" lengthAdjust="spacing" textLength="152.0833" x="330.2083" y="71.9442">Main Loop</text><ellipse cx="364.5833" cy="122.1029" fill="#222222" rx="20.8333" ry="20.8333" style="stroke:#222222;stroke-width:2.0833333333333335;"/><rect fill="#F1F1F1" height="73.112" rx="26.0417" ry="26.0417" style="stroke:#181818;stroke-width:1.0416666666666667;" width="189.5833" x="269.7917" y="276.2695"/><text fill="#000000" font-family="sans-serif" font-size="25" lengthAdjust="spacing" textLength="147.9167" x="290.625" y="323.055">Delay(10ms)</text><rect fill="#F1F1F1" height="73.112" rx="26.0417" ry="26.0417" style="stroke:#181818;stroke-width:1.0416666666666667;" width="362.5" x="183.3333" y="391.0482"/><text fill="#000000" font-family="sans-serif" font-size="25" lengthAdjust="spacing" textLength="62.5" x="204.1667" y="437.8337">Read</text><text fill="#000000" font-family="sans-serif" font-size="25" lengthAdjust="spacing" textLength="6.25" x="266.6667" y="437.8337">&#160;</text><text fill="#000000" font-family="sans-serif" font-size="25" lengthAdjust="spacing" textLength="43.75" x="272.9167" y="437.8337">Fan</text><text fill="#000000" font-family="sans-serif" font-size="25" lengthAdjust="spacing" textLength="6.25" x="316.6667" y="437.8337">&#160;</text><text fill="#000000" font-family="sans-serif" font-size="25" lengthAdjust="spacing" textLength="43.75" x="322.9167" y="437.8337">and</text><text fill="#000000" font-family="sans-serif" font-size="25" lengthAdjust="spacing" textLength="6.25" x="366.6667" y="437.8337">&#160;</text><text fill="#000000" font-family="sans-serif" font-size="25" lengthAdjust="spacing" textLength="72.9167" x="372.9167" y="437.8337">Button</text><text fill="#000000" font-family="sans-serif" font-size="25" lengthAdjust="spacing" textLength="6.25" x="445.8333" y="437.8337">&#160;</text><text fill="#000000" font-family="sans-serif" font-size="25" lengthAdjust="spacing" textLength="72.9167" x="452.0833" y="437.8337">Status</text><rect fill="#F1F1F1" height="73.112" rx="26.0417" ry="26.0417" style="stroke:#181818;stroke-width:1.0416666666666667;" width="300" x="214.5833" y="505.8268"/><text fill="#000000" font-family="sans-serif" font-size="25" lengthAdjust="spacing" textLength="62.5" x="235.4167" y="552.6123">Read</text><text fill="#000000" font-family="sans-serif" font-size="25" lengthAdjust="spacing" textLength="6.25" x="297.9167" y="552.6123">&#160;</text><text fill="#000000" font-family="sans-serif" font-size="25" lengthAdjust="spacing" textLength="27.0833" x="304.1667" y="552.6123">All</text><text fill="#000000" font-family="sans-serif" font-size="25" lengthAdjust="spacing" textLength="6.25" x="331.25" y="552.6123">&#160;</text><text fill="#000000" font-family="sans-serif" font-size="25" lengthAdjust="spacing" textLength="79.1667" x="337.5" y="552.6123">Analog</text><text fill="#000000" font-family="sans-serif" font-size="25" lengthAdjust="spacing" textLength="6.25" x="416.6667" y="552.6123">&#160;</text><text fill="#000000" font-family="sans-serif" font-size="25" lengthAdjust="spacing" textLength="70.8333" x="422.9167" y="552.6123">Inputs</text><rect fill="#F1F1F1" height="73.112" rx="26.0417" ry="26.0417" style="stroke:#181818;stroke-width:1.0416666666666667;" width="260.4167" x="234.375" y="620.6055"/><text fill="#000000" font-family="sans-serif" font-size="25" lengthAdjust="spacing" textLength="83.3333" x="255.2083" y="667.391">Update</text><text fill="#000000" font-family="sans-serif" font-size="25" lengthAdjust="spacing" textLength="6.25" x="338.5417" y="667.391">&#160;</text><text fill="#000000" font-family="sans-serif" font-size="25" lengthAdjust="spacing" textLength="66.6667" x="344.7917" y="667.391">Brake</text><text fill="#000000" font-family="sans-serif" font-size="25" lengthAdjust="spacing" textLength="6.25" x="411.4583" y="667.391">&#160;</text><text fill="#000000" font-family="sans-serif" font-size="25" lengthAdjust="spacing" textLength="56.25" x="417.7083" y="667.391">Light</text><rect fill="#F1F1F1" height="73.112" rx="26.0417" ry="26.0417" style="stroke:#181818;stroke-width:1.0416666666666667;" width="431.25" x="148.9583" y="735.3841"/><text fill="#000000" font-family="sans-serif" font-size="25" lengthAdjust="spacing" textLength="108.3333" x="169.7917" y="782.1696">Calculate</text><text fill="#000000" font-family="sans-serif" font-size="25" lengthAdjust="spacing" textLength="6.25" x="278.125" y="782.1696">&#160;</text><text fill="#000000" font-family="sans-serif" font-size="25" lengthAdjust="spacing" textLength="81.25" x="284.375" y="782.1696">Torque</text><text fill="#000000" font-family="sans-serif" font-size="25" lengthAdjust="spacing" textLength="6.25" x="365.625" y="782.1696">&#160;</text><text fill="#000000" font-family="sans-serif" font-size="25" lengthAdjust="spacing" textLength="60.4167" x="371.875" y="782.1696">From</text><text fill="#000000" font-family="sans-serif" font-size="25" lengthAdjust="spacing" textLength="6.25" x="432.2917" y="782.1696">&#160;</text><text fill="#000000" font-family="sans-serif" font-size="25" lengthAdjust="spacing" textLength="47.9167" x="438.5417" y="782.1696">Gas</text><text fill="#000000" font-family="sans-serif" font-size="25" lengthAdjust="spacing" textLength="6.25" x="486.4583" y="782.1696">&#160;</text><text fill="#000000" font-family="sans-serif" font-size="25" lengthAdjust="spacing" textLength="66.6667" x="492.7083" y="782.1696">Pedal</text><rect fill="#F1F1F1" height="73.112" rx="26.0417" ry="26.0417" style="stroke:#181818;stroke-width:1.0416666666666667;" width="287.5" x="220.8333" y="850.1628"/><text fill="#000000" font-family="sans-serif" font-size="25" lengthAdjust="spacing" textLength="108.3333" x="241.6667" y="896.9482">Calculate</text><text fill="#000000" font-family="sans-serif" font-size="25" lengthAdjust="spacing" textLength="6.25" x="350" y="896.9482">&#160;</text><text fill="#000000" font-family="sans-serif" font-size="25" lengthAdjust="spacing" textLength="27.0833" x="356.25" y="896.9482">All</text><text fill="#000000" font-family="sans-serif" font-size="25" lengthAdjust="spacing" textLength="6.25" x="383.3333" y="896.9482">&#160;</text><text fill="#000000" font-family="sans-serif" font-size="25" lengthAdjust="spacing" textLength="97.9167" x="389.5833" y="896.9482">Sensors</text><rect fill="#F1F1F1" height="73.112" rx="26.0417" ry="26.0417" style="stroke:#181818;stroke-width:1.0416666666666667;" width="456.25" x="136.4583" y="964.9414"/><text fill="#000000" font-family="sans-serif" font-size="25" lengthAdjust="spacing" textLength="60.4167" x="157.2917" y="1011.7269">Send</text><text fill="#000000" font-family="sans-serif" font-size="25" lengthAdjust="spacing" textLength="6.25" x="217.7083" y="1011.7269">&#160;</text><text fill="#000000" font-family="sans-serif" font-size="25" lengthAdjust="spacing" textLength="27.0833" x="223.9583" y="1011.7269">All</text><text fill="#000000" font-family="sans-serif" font-size="25" lengthAdjust="spacing" textLength="6.25" x="251.0417" y="1011.7269">&#160;</text><text fill="#000000" font-family="sans-serif" font-size="25" lengthAdjust="spacing" textLength="129.1667" x="257.2917" y="1011.7269">Dashboard</text><text fill="#000000" font-family="sans-serif" font-size="25" lengthAdjust="spacing" textLength="6.25" x="386.4583" y="1011.7269">&#160;</text><text fill="#000000" font-family="sans-serif" font-size="25" lengthAdjust="spacing" textLength="52.0833" x="392.7083" y="1011.7269">CAN</text><text fill="#000000" font-family="sans-serif" font-size="25" lengthAdjust="spacing" textLength="6.25" x="444.7917" y="1011.7269">&#160;</text><text fill="#000000" font-family="sans-serif" font-size="25" lengthAdjust="spacing" textLength="120.8333" x="451.0417" y="1011.7269">Messages</text><rect fill="#F1F1F1" height="73.112" rx="26.0417" ry="26.0417" style="stroke:#181818;stroke-width:1.0416666666666667;" width="277.0833" x="226.0417" y="1079.7201"/><text fill="#000000" font-family="sans-serif" font-size="25" lengthAdjust="spacing" textLength="43.75" x="246.875" y="1126.5055">Log</text><text fill="#000000" font-family="sans-serif" font-size="25" lengthAdjust="spacing" textLength="6.25" x="290.625" y="1126.5055">&#160;</text><text fill="#000000" font-family="sans-serif" font-size="25" lengthAdjust="spacing" textLength="54.1667" x="296.875" y="1126.5055">Data</text><text fill="#000000" font-family="sans-serif" font-size="25" lengthAdjust="spacing" textLength="6.25" x="351.0417" y="1126.5055">&#160;</text><text fill="#000000" font-family="sans-serif" font-size="25" lengthAdjust="spacing" textLength="20.8333" x="357.2917" y="1126.5055">to</text><text fill="#000000" font-family="sans-serif" font-size="25" lengthAdjust="spacing" textLength="6.25" x="378.125" y="1126.5055">&#160;</text><text fill="#000000" font-family="sans-serif" font-size="25" lengthAdjust="spacing" textLength="35.4167" x="384.375" y="1126.5055">SD</text><text fill="#000000" font-family="sans-serif" font-size="25" lengthAdjust="spacing" textLength="6.25" x="419.7917" y="1126.5055">&#160;</text><text fill="#000000" font-family="sans-serif" font-size="25" lengthAdjust="spacing" textLength="56.25" x="426.0417" y="1126.5055">Card</text><rect fill="#F1F1F1" height="73.112" rx="26.0417" ry="26.0417" style="stroke:#181818;stroke-width:1.0416666666666667;" width="139.5833" x="294.7917" y="1325.8464"/><text fill="#000000" font-family="sans-serif" font-size="25" lengthAdjust="spacing" textLength="39.5833" x="315.625" y="1372.6318">Rtd</text><text fill="#000000" font-family="sans-serif" font-size="25" lengthAdjust="spacing" textLength="6.25" x="355.2083" y="1372.6318">&#160;</text><text fill="#000000" font-family="sans-serif" font-size="25" lengthAdjust="spacing" textLength="52.0833" x="361.4583" y="1372.6318">Start</text><polygon fill="#F1F1F1" points="188.5417,1222.6237,540.625,1222.6237,565.625,1247.6237,540.625,1272.6237,188.5417,1272.6237,163.5417,1247.6237,188.5417,1222.6237" style="stroke:#181818;stroke-width:1.0416666666666667;"/><text fill="#000000" font-family="sans-serif" font-size="25" lengthAdjust="spacing" textLength="39.5833" x="372.9167" y="1298.5758">yes</text><text fill="#000000" font-family="sans-serif" font-size="25" lengthAdjust="spacing" textLength="52.0833" x="188.5417" y="1257.8532">RTD</text><text fill="#000000" font-family="sans-serif" font-size="25" lengthAdjust="spacing" textLength="6.25" x="240.625" y="1257.8532">&#160;</text><text fill="#000000" font-family="sans-serif" font-size="25" lengthAdjust="spacing" textLength="52.0833" x="246.875" y="1257.8532">AND</text><text fill="#000000" font-family="sans-serif" font-size="25" lengthAdjust="spacing" textLength="6.25" x="298.9583" y="1257.8532">&#160;</text><text fill="#000000" font-family="sans-serif" font-size="25" lengthAdjust="spacing" textLength="52.0833" x="305.2083" y="1257.8532">Start</text><text fill="#000000" font-family="sans-serif" font-size="25" lengthAdjust="spacing" textLength="6.25" x="357.2917" y="1257.8532">&#160;</text><text fill="#000000" font-family="sans-serif" font-size="25" lengthAdjust="spacing" textLength="72.9167" x="363.5417" y="1257.8532">Button</text><text fill="#000000" font-family="sans-serif" font-size="25" lengthAdjust="spacing" textLength="6.25" x="436.4583" y="1257.8532">&#160;</text><text fill="#000000" font-family="sans-serif" font-size="25" lengthAdjust="spacing" textLength="97.9167" x="442.7083" y="1257.8532">Pressed</text><polygon fill="#F1F1F1" points="364.5833,1440.625,389.5833,1465.625,364.5833,1490.625,339.5833,1465.625,364.5833,1440.625" style="stroke:#181818;stroke-width:1.0416666666666667;"/><rect fill="#F1F1F1" height="73.112" rx="26.0417" ry="26.0417" style="stroke:#181818;stroke-width:1.0416666666666667;" width="218.75" x="255.2083" y="1648.4049"/><text fill="#000000" font-family="sans-serif" font-size="25" lengthAdjust="spacing" textLength="118.75" x="276.0417" y="1695.1904">Deactivate</text><text fill="#000000" font-family="sans-serif" font-size="25" lengthAdjust="spacing" textLength="6.25" x="394.7917" y="1695.1904">&#160;</text><text fill="#000000" font-family="sans-serif" font-size="25" lengthAdjust="spacing" textLength="52.0833" x="401.0417" y="1695.1904">RTD</text><polygon fill="#F1F1F1" points="185.4167,1532.2917,543.75,1532.2917,568.75,1563.737,543.75,1595.1823,185.4167,1595.1823,160.4167,1563.737,185.4167,1532.2917" style="stroke:#181818;stroke-width:1.0416666666666667;"/><text fill="#000000" font-family="sans-serif" font-size="25" lengthAdjust="spacing" textLength="39.5833" x="372.9167" y="1621.1344">yes</text><text fill="#000000" font-family="sans-serif" font-size="25" lengthAdjust="spacing" textLength="52.0833" x="185.4167" y="1558.2438">RTD</text><text fill="#000000" font-family="sans-serif" font-size="25" lengthAdjust="spacing" textLength="6.25" x="237.5" y="1558.2438">&#160;</text><text fill="#000000" font-family="sans-serif" font-size="25" lengthAdjust="spacing" textLength="72.9167" x="243.75" y="1558.2438">Button</text><text fill="#000000" font-family="sans-serif" font-size="25" lengthAdjust="spacing" textLength="6.25" x="316.6667" y="1558.2438">&#160;</text><text fill="#000000" font-family="sans-serif" font-size="25" lengthAdjust="spacing" textLength="112.5" x="322.9167" y="1558.2438">Released</text><text fill="#000000" font-family="sans-serif" font-size="25" lengthAdjust="spacing" textLength="6.25" x="435.4167" y="1558.2438">&#160;</text><text fill="#000000" font-family="sans-serif" font-size="25" lengthAdjust="spacing" textLength="43.75" x="441.6667" y="1558.2438">and</text><text fill="#000000" font-family="sans-serif" font-size="25" lengthAdjust="spacing" textLength="6.25" x="485.4167" y="1558.2438">&#160;</text><text fill="#000000" font-family="sans-serif" font-size="25" lengthAdjust="spacing" textLength="52.0833" x="491.6667" y="1558.2438">Start</text><text fill="#000000" font-family="sans-serif" font-size="25" lengthAdjust="spacing" textLength="72.9167" x="261.4583" y="1589.6891">Button</text><text fill="#000000" font-family="sans-serif" font-size="25" lengthAdjust="spacing" textLength="6.25" x="334.375" y="1589.6891">&#160;</text><text fill="#000000" font-family="sans-serif" font-size="25" lengthAdjust="spacing" textLength="127.0833" x="340.625" y="1589.6891">Released?</text><polygon fill="#F1F1F1" points="364.5833,1763.1836,389.5833,1788.1836,364.5833,1813.1836,339.5833,1788.1836,364.5833,1763.1836" style="stroke:#181818;stroke-width:1.0416666666666667;"/><polygon fill="#F1F1F1" points="238.5417,1854.8503,490.625,1854.8503,515.625,1879.8503,490.625,1904.8503,238.5417,1904.8503,213.5417,1879.8503,238.5417,1854.8503" style="stroke:#181818;stroke-width:1.0416666666666667;"/><text fill="#000000" font-family="sans-serif" font-size="25" lengthAdjust="spacing" textLength="52.0833" x="238.5417" y="1890.0798">RTD</text><text fill="#000000" font-family="sans-serif" font-size="25" lengthAdjust="spacing" textLength="6.25" x="290.625" y="1890.0798">&#160;</text><text fill="#000000" font-family="sans-serif" font-size="25" lengthAdjust="spacing" textLength="72.9167" x="296.875" y="1890.0798">Button</text><text fill="#000000" font-family="sans-serif" font-size="25" lengthAdjust="spacing" textLength="6.25" x="369.7917" y="1890.0798">&#160;</text><text fill="#000000" font-family="sans-serif" font-size="25" lengthAdjust="spacing" textLength="114.5833" x="376.0417" y="1890.0798">Activated?</text><text fill="#000000" font-family="sans-serif" font-size="25" lengthAdjust="spacing" textLength="39.5833" x="173.9583" y="1874.3571">yes</text><text fill="#000000" font-family="sans-serif" font-size="25" lengthAdjust="spacing" textLength="29.1667" x="515.625" y="1874.3571">no</text><rect fill="#F1F1F1" height="73.112" rx="26.0417" ry="26.0417" style="stroke:#181818;stroke-width:1.0416666666666667;" width="306.25" x="22.9167" y="1925.6836"/><text fill="#000000" font-family="sans-serif" font-size="25" lengthAdjust="spacing" textLength="60.4167" x="43.75" y="1972.4691">Send</text><text fill="#000000" font-family="sans-serif" font-size="25" lengthAdjust="spacing" textLength="6.25" x="104.1667" y="1972.4691">&#160;</text><text fill="#000000" font-family="sans-serif" font-size="25" lengthAdjust="spacing" textLength="81.25" x="110.4167" y="1972.4691">Torque</text><text fill="#000000" font-family="sans-serif" font-size="25" lengthAdjust="spacing" textLength="6.25" x="191.6667" y="1972.4691">&#160;</text><text fill="#000000" font-family="sans-serif" font-size="25" lengthAdjust="spacing" textLength="20.8333" x="197.9167" y="1972.4691">to</text><text fill="#000000" font-family="sans-serif" font-size="25" lengthAdjust="spacing" textLength="6.25" x="218.75" y="1972.4691">&#160;</text><text fill="#000000" font-family="sans-serif" font-size="25" lengthAdjust="spacing" textLength="83.3333" x="225" y="1972.4691">Inverter</text><rect fill="#F1F1F1" height="73.112" rx="26.0417" ry="26.0417" style="stroke:#181818;stroke-width:1.0416666666666667;" width="364.5833" x="370.8333" y="1925.6836"/><text fill="#000000" font-family="sans-serif" font-size="25" lengthAdjust="spacing" textLength="60.4167" x="391.6667" y="1972.4691">Send</text><text fill="#000000" font-family="sans-serif" font-size="25" lengthAdjust="spacing" textLength="6.25" x="452.0833" y="1972.4691">&#160;</text><text fill="#000000" font-family="sans-serif" font-size="25" lengthAdjust="spacing" textLength="52.0833" x="458.3333" y="1972.4691">Zero</text><text fill="#000000" font-family="sans-serif" font-size="25" lengthAdjust="spacing" textLength="6.25" x="510.4167" y="1972.4691">&#160;</text><text fill="#000000" font-family="sans-serif" font-size="25" lengthAdjust="spacing" textLength="81.25" x="516.6667" y="1972.4691">Torque</text><text fill="#000000" font-family="sans-serif" font-size="25" lengthAdjust="spacing" textLength="6.25" x="597.9167" y="1972.4691">&#160;</text><text fill="#000000" font-family="sans-serif" font-size="25" lengthAdjust="spacing" textLength="20.8333" x="604.1667" y="1972.4691">to</text><text fill="#000000" font-family="sans-serif" font-size="25" lengthAdjust="spacing" textLength="6.25" x="625" y="1972.4691">&#160;</text><text fill="#000000" font-family="sans-serif" font-size="25" lengthAdjust="spacing" textLength="83.3333" x="631.25" y="1972.4691">Inverter</text><rect fill="#F1F1F1" height="73.112" rx="26.0417" ry="26.0417" style="stroke:#181818;stroke-width:1.0416666666666667;" width="250" x="428.125" y="2040.4622"/><text fill="#000000" font-family="sans-serif" font-size="25" lengthAdjust="spacing" textLength="118.75" x="448.9583" y="2087.2477">Deactivate</text><text fill="#000000" font-family="sans-serif" font-size="25" lengthAdjust="spacing" textLength="6.25" x="567.7083" y="2087.2477">&#160;</text><text fill="#000000" font-family="sans-serif" font-size="25" lengthAdjust="spacing" textLength="83.3333" x="573.9583" y="2087.2477">Inverter</text><polygon fill="#F1F1F1" points="364.5833,2126.0742,389.5833,2151.0742,364.5833,2176.0742,339.5833,2151.0742,364.5833,2126.0742" style="stroke:#181818;stroke-width:1.0416666666666667;"/><polygon fill="#F1F1F1" points="364.5833,184.6029,389.5833,209.6029,364.5833,234.6029,339.5833,209.6029,364.5833,184.6029" style="stroke:#181818;stroke-width:1.0416666666666667;"/><polygon fill="#F1F1F1" points="339.5833,2217.7409,389.5833,2217.7409,414.5833,2242.7409,389.5833,2267.7409,339.5833,2267.7409,314.5833,2242.7409,339.5833,2217.7409" style="stroke:#181818;stroke-width:1.0416666666666667;"/><text fill="#000000" font-family="sans-serif" font-size="25" lengthAdjust="spacing" textLength="43.75" x="342.7083" y="2252.9704">true</text><ellipse cx="364.5833" cy="2332.3242" fill="none" rx="22.9167" ry="22.9167" style="stroke:#222222;stroke-width:2.0833333333333335;"/><ellipse cx="364.5833" cy="2332.3242" fill="#222222" rx="12.5" ry="12.5" style="stroke:#222222;stroke-width:2.0833333333333335;"/><line style="stroke:#000000;stroke-width:2.0833333333333335;" x1="364.5833" x2="364.5833" y1="349.3815" y2="391.0482"/><polygon fill="#000000" points="356.25,370.2148,364.5833,391.0482,372.9167,370.2148,364.5833,378.5482" style="stroke:#000000;stroke-width:2.0833333333333335;"/><line style="stroke:#000000;stroke-width:2.0833333333333335;" x1="364.5833" x2="364.5833" y1="464.1602" y2="505.8268"/><polygon fill="#000000" points="356.25,484.9935,364.5833,505.8268,372.9167,484.9935,364.5833,493.3268" style="stroke:#000000;stroke-width:2.0833333333333335;"/><line style="stroke:#000000;stroke-width:2.0833333333333335;" x1="364.5833" x2="364.5833" y1="578.9388" y2="620.6055"/><polygon fill="#000000" points="356.25,599.7721,364.5833,620.6055,372.9167,599.7721,364.5833,608.1055" style="stroke:#000000;stroke-width:2.0833333333333335;"/><line style="stroke:#000000;stroke-width:2.0833333333333335;" x1="364.5833" x2="364.5833" y1="693.7174" y2="735.3841"/><polygon fill="#000000" points="356.25,714.5508,364.5833,735.3841,372.9167,714.5508,364.5833,722.8841" style="stroke:#000000;stroke-width:2.0833333333333335;"/><line style="stroke:#000000;stroke-width:2.0833333333333335;" x1="364.5833" x2="364.5833" y1="808.4961" y2="850.1628"/><polygon fill="#000000" points="356.25,829.3294,364.5833,850.1628,372.9167,829.3294,364.5833,837.6628" style="stroke:#000000;stroke-width:2.0833333333333335;"/><line style="stroke:#000000;stroke-width:2.0833333333333335;" x1="364.5833" x2="364.5833" y1="923.2747" y2="964.9414"/><polygon fill="#000000" points="356.25,944.1081,364.5833,964.9414,372.9167,944.1081,364.5833,952.4414" style="stroke:#000000;stroke-width:2.0833333333333335;"/><line style="stroke:#000000;stroke-width:2.0833333333333335;" x1="364.5833" x2="364.5833" y1="1038.0534" y2="1079.7201"/><polygon fill="#000000" points="356.25,1058.8867,364.5833,1079.7201,372.9167,1058.8867,364.5833,1067.2201" style="stroke:#000000;stroke-width:2.0833333333333335;"/><line style="stroke:#000000;stroke-width:2.0833333333333335;" x1="364.5833" x2="364.5833" y1="1272.6237" y2="1325.8464"/><polygon fill="#000000" points="356.25,1305.013,364.5833,1325.8464,372.9167,1305.013,364.5833,1313.3464" style="stroke:#000000;stroke-width:2.0833333333333335;"/><line style="stroke:#000000;stroke-width:2.0833333333333335;" x1="565.625" x2="590.625" y1="1247.6237" y2="1247.6237"/><polygon fill="#000000" points="582.2917,1341.569,590.625,1362.4023,598.9583,1341.569,590.625,1349.9023" style="stroke:#000000;stroke-width:2.0833333333333335;"/><line style="stroke:#000000;stroke-width:2.0833333333333335;" x1="590.625" x2="590.625" y1="1247.6237" y2="1465.625"/><line style="stroke:#000000;stroke-width:2.0833333333333335;" x1="590.625" x2="389.5833" y1="1465.625" y2="1465.625"/><polygon fill="#000000" points="410.4167,1457.2917,389.5833,1465.625,410.4167,1473.9583,402.0833,1465.625" style="stroke:#000000;stroke-width:2.0833333333333335;"/><line style="stroke:#000000;stroke-width:2.0833333333333335;" x1="364.5833" x2="364.5833" y1="1398.9583" y2="1440.625"/><polygon fill="#000000" points="356.25,1419.7917,364.5833,1440.625,372.9167,1419.7917,364.5833,1428.125" style="stroke:#000000;stroke-width:2.0833333333333335;"/><line style="stroke:#000000;stroke-width:2.0833333333333335;" x1="364.5833" x2="364.5833" y1="1152.832" y2="1222.6237"/><polygon fill="#000000" points="356.25,1201.7904,364.5833,1222.6237,372.9167,1201.7904,364.5833,1210.1237" style="stroke:#000000;stroke-width:2.0833333333333335;"/><line style="stroke:#000000;stroke-width:2.0833333333333335;" x1="364.5833" x2="364.5833" y1="1595.1823" y2="1648.4049"/><polygon fill="#000000" points="356.25,1627.5716,364.5833,1648.4049,372.9167,1627.5716,364.5833,1635.9049" style="stroke:#000000;stroke-width:2.0833333333333335;"/><line style="stroke:#000000;stroke-width:2.0833333333333335;" x1="568.75" x2="593.75" y1="1563.737" y2="1563.737"/><polygon fill="#000000" points="585.4167,1660.9049,593.75,1681.7383,602.0833,1660.9049,593.75,1669.2383" style="stroke:#000000;stroke-width:2.0833333333333335;"/><line style="stroke:#000000;stroke-width:2.0833333333333335;" x1="593.75" x2="593.75" y1="1563.737" y2="1788.1836"/><line style="stroke:#000000;stroke-width:2.0833333333333335;" x1="593.75" x2="389.5833" y1="1788.1836" y2="1788.1836"/><polygon fill="#000000" points="410.4167,1779.8503,389.5833,1788.1836,410.4167,1796.5169,402.0833,1788.1836" style="stroke:#000000;stroke-width:2.0833333333333335;"/><line style="stroke:#000000;stroke-width:2.0833333333333335;" x1="364.5833" x2="364.5833" y1="1721.5169" y2="1763.1836"/><polygon fill="#000000" points="356.25,1742.3503,364.5833,1763.1836,372.9167,1742.3503,364.5833,1750.6836" style="stroke:#000000;stroke-width:2.0833333333333335;"/><line style="stroke:#000000;stroke-width:2.0833333333333335;" x1="364.5833" x2="364.5833" y1="1490.625" y2="1532.2917"/><polygon fill="#000000" points="356.25,1511.4583,364.5833,1532.2917,372.9167,1511.4583,364.5833,1519.7917" style="stroke:#000000;stroke-width:2.0833333333333335;"/><line style="stroke:#000000;stroke-width:2.0833333333333335;" x1="553.125" x2="553.125" y1="1998.7956" y2="2040.4622"/><polygon fill="#000000" points="544.7917,2019.6289,553.125,2040.4622,561.4583,2019.6289,553.125,2027.9622" style="stroke:#000000;stroke-width:2.0833333333333335;"/><line style="stroke:#000000;stroke-width:2.0833333333333335;" x1="213.5417" x2="176.0417" y1="1879.8503" y2="1879.8503"/><line style="stroke:#000000;stroke-width:2.0833333333333335;" x1="176.0417" x2="176.0417" y1="1879.8503" y2="1925.6836"/><polygon fill="#000000" points="167.7083,1904.8503,176.0417,1925.6836,184.375,1904.8503,176.0417,1913.1836" style="stroke:#000000;stroke-width:2.0833333333333335;"/><line style="stroke:#000000;stroke-width:2.0833333333333335;" x1="515.625" x2="553.125" y1="1879.8503" y2="1879.8503"/><line style="stroke:#000000;stroke-width:2.0833333333333335;" x1="553.125" x2="553.125" y1="1879.8503" y2="1925.6836"/><polygon fill="#000000" points="544.7917,1904.8503,553.125,1925.6836,561.4583,1904.8503,553.125,1913.1836" style="stroke:#000000;stroke-width:2.0833333333333335;"/><line style="stroke:#000000;stroke-width:2.0833333333333335;" x1="176.0417" x2="176.0417" y1="1998.7956" y2="2151.0742"/><line style="stroke:#000000;stroke-width:2.0833333333333335;" x1="176.0417" x2="339.5833" y1="2151.0742" y2="2151.0742"/><polygon fill="#000000" points="318.75,2142.7409,339.5833,2151.0742,318.75,2159.4076,327.0833,2151.0742" style="stroke:#000000;stroke-width:2.0833333333333335;"/><line style="stroke:#000000;stroke-width:2.0833333333333335;" x1="553.125" x2="553.125" y1="2113.5742" y2="2151.0742"/><line style="stroke:#000000;stroke-width:2.0833333333333335;" x1="553.125" x2="389.5833" y1="2151.0742" y2="2151.0742"/><polygon fill="#000000" points="410.4167,2142.7409,389.5833,2151.0742,410.4167,2159.4076,402.0833,2151.0742" style="stroke:#000000;stroke-width:2.0833333333333335;"/><line style="stroke:#000000;stroke-width:2.0833333333333335;" x1="364.5833" x2="364.5833" y1="1813.1836" y2="1854.8503"/><polygon fill="#000000" points="356.25,1834.0169,364.5833,1854.8503,372.9167,1834.0169,364.5833,1842.3503" style="stroke:#000000;stroke-width:2.0833333333333335;"/><line style="stroke:#000000;stroke-width:2.0833333333333335;" x1="364.5833" x2="364.5833" y1="234.6029" y2="276.2695"/><polygon fill="#000000" points="356.25,255.4362,364.5833,276.2695,372.9167,255.4362,364.5833,263.7695" style="stroke:#000000;stroke-width:2.0833333333333335;"/><line style="stroke:#000000;stroke-width:2.0833333333333335;" x1="414.5833" x2="764.5833" y1="2242.7409" y2="2242.7409"/><polygon fill="#000000" points="756.25,1194.4987,764.5833,1173.6654,772.9167,1194.4987,764.5833,1186.1654" style="stroke:#000000;stroke-width:2.0833333333333335;"/><line style="stroke:#000000;stroke-width:2.0833333333333335;" x1="764.5833" x2="764.5833" y1="209.6029" y2="2242.7409"/><line style="stroke:#000000;stroke-width:2.0833333333333335;" x1="764.5833" x2="389.5833" y1="209.6029" y2="209.6029"/><polygon fill="#000000" points="410.4167,201.2695,389.5833,209.6029,410.4167,217.9362,402.0833,209.6029" style="stroke:#000000;stroke-width:2.0833333333333335;"/><line style="stroke:#000000;stroke-width:2.0833333333333335;" x1="364.5833" x2="364.5833" y1="2176.0742" y2="2217.7409"/><polygon fill="#000000" points="356.25,2196.9076,364.5833,2217.7409,372.9167,2196.9076,364.5833,2205.2409" style="stroke:#000000;stroke-width:2.0833333333333335;"/><line style="stroke:#000000;stroke-width:2.0833333333333335;" x1="364.5833" x2="364.5833" y1="142.9362" y2="184.6029"/><polygon fill="#000000" points="356.25,163.7695,364.5833,184.6029,372.9167,163.7695,364.5833,172.1029" style="stroke:#000000;stroke-width:2.0833333333333335;"/><line style="stroke:#000000;stroke-width:2.0833333333333335;" x1="364.5833" x2="364.5833" y1="2267.7409" y2="2309.4076"/><polygon fill="#000000" points="356.25,2288.5742,364.5833,2309.4076,372.9167,2288.5742,364.5833,2296.9076" style="stroke:#000000;stroke-width:2.0833333333333335;"/><!--SRC=[VP9DRzim38Rl_XKyEhUam2xjeN1ZP2YG5aMSOS1kh4NRWcL9e-YcxR3_FlcZIvEryy6GoPUF-D8ChROU6JlubK1ybDTmiLoEvz2WSWTjQwZG11fZoEmE6sUbqAy4gukfY2hiZNmItjEpP4RNjYChKCONyP6rRtJPMWe1LiVWsXd7y6YmR4zlFKzq-7mNQx6cwUAvymEZ_wwLD7-zMAUey5WERhvC8KRRdeMKPYf5Emk6AW5nmBfk9FcT9AB54DoXjh1rpYT946H9c3oXnEBBd0o-fAjb5nPNm_UEKC46BQ1LSDEBH6eXA7qufZDZ8BDeN0strlSofRvvXK9mmzWIR8S6nl0QJTcR8RDt_BCdsB3hu2i6U225vampe0komV44ZUVflXn3y-YG5QopUvYdDscsiOyS1GVZHGxhABfAOa9NaExsEMJt-M21vStF0yToKWkGXYoaBnGMunmlTw8cvS2DD-lgFMUktf4XZENZX4wuRvdhVyavOVn3JuF5YFeVFfjr7r76QSnZZ6PlxHDnNCiH5rSTKklUAtyGkq_afosTWCQ-fWM1GwFZ-gJ2FItYwZZ_1m00]--></g></svg>