<?xml version="1.0" encoding="us-ascii" standalone="no"?><svg xmlns="http://www.w3.org/2000/svg" xmlns:xlink="http://www.w3.org/1999/xlink" contentStyleType="text/css" height="985.4167px" preserveAspectRatio="none" style="width:672px;height:985px;background:#FFFFFF;" version="1.1" viewBox="0 0 672 985" width="672.9167px" zoomAndPan="magnify"><defs/><g><text fill="#000000" font-family="sans-serif" font-size="29.1667" font-weight="bold" lengthAdjust="spacing" textLength="175" x="246.3542" y="71.9442">Initialization</text><ellipse cx="311.4583" cy="122.1029" fill="#222222" rx="20.8333" ry="20.8333" style="stroke:#222222;stroke-width:2.0833333333333335;"/><rect fill="#F1F1F1" height="73.112" rx="26.0417" ry="26.0417" style="stroke:#181818;stroke-width:1.0416666666666667;" width="247.9167" x="187.5" y="184.6029"/><text fill="#000000" font-family="sans-serif" font-size="25" lengthAdjust="spacing" textLength="91.6667" x="208.3333" y="231.3883">Initialize</text><text fill="#000000" font-family="sans-serif" font-size="25" lengthAdjust="spacing" textLength="6.25" x="300" y="231.3883">&#160;</text><text fill="#000000" font-family="sans-serif" font-size="25" lengthAdjust="spacing" textLength="108.3333" x="306.25" y="231.3883">Variables</text><polygon fill="#F1F1F1" points="141.6667,299.3815,481.25,299.3815,506.25,324.3815,481.25,349.3815,141.6667,349.3815,116.6667,324.3815,141.6667,299.3815" style="stroke:#181818;stroke-width:1.0416666666666667;"/><text fill="#000000" font-family="sans-serif" font-size="25" lengthAdjust="spacing" textLength="47.9167" x="141.6667" y="334.611">Gas</text><text fill="#000000" font-family="sans-serif" font-size="25" lengthAdjust="spacing" textLength="6.25" x="189.5833" y="334.611">&#160;</text><text fill="#000000" font-family="sans-serif" font-size="25" lengthAdjust="spacing" textLength="66.6667" x="195.8333" y="334.611">Pedal</text><text fill="#000000" font-family="sans-serif" font-size="25" lengthAdjust="spacing" textLength="6.25" x="262.5" y="334.611">&#160;</text><text fill="#000000" font-family="sans-serif" font-size="25" lengthAdjust="spacing" textLength="135.4167" x="268.75" y="334.611">Parameters</text><text fill="#000000" font-family="sans-serif" font-size="25" lengthAdjust="spacing" textLength="6.25" x="404.1667" y="334.611">&#160;</text><text fill="#000000" font-family="sans-serif" font-size="25" lengthAdjust="spacing" textLength="70.8333" x="410.4167" y="334.611">Valid?</text><text fill="#000000" font-family="sans-serif" font-size="25" lengthAdjust="spacing" textLength="39.5833" x="77.0833" y="318.8883">yes</text><text fill="#000000" font-family="sans-serif" font-size="25" lengthAdjust="spacing" textLength="29.1667" x="506.25" y="318.8883">no</text><rect fill="#F1F1F1" height="73.112" rx="26.0417" ry="26.0417" style="stroke:#181818;stroke-width:1.0416666666666667;" width="145.8333" x="22.9167" y="370.2148"/><text fill="#000000" font-family="sans-serif" font-size="25" lengthAdjust="spacing" textLength="104.1667" x="43.75" y="417.0003">Continue</text><rect fill="#F1F1F1" height="73.112" rx="26.0417" ry="26.0417" style="stroke:#181818;stroke-width:1.0416666666666667;" width="247.9167" x="403.125" y="370.2148"/><text fill="#000000" font-family="sans-serif" font-size="25" lengthAdjust="spacing" textLength="60.4167" x="423.9583" y="417.0003">Enter</text><text fill="#000000" font-family="sans-serif" font-size="25" lengthAdjust="spacing" textLength="6.25" x="484.375" y="417.0003">&#160;</text><text fill="#000000" font-family="sans-serif" font-size="25" lengthAdjust="spacing" textLength="75" x="490.625" y="417.0003">Infinite</text><text fill="#000000" font-family="sans-serif" font-size="25" lengthAdjust="spacing" textLength="6.25" x="565.625" y="417.0003">&#160;</text><text fill="#000000" font-family="sans-serif" font-size="25" lengthAdjust="spacing" textLength="58.3333" x="571.875" y="417.0003">Loop</text><ellipse cx="527.0833" cy="507.9102" fill="none" rx="22.9167" ry="22.9167" style="stroke:#222222;stroke-width:2.0833333333333335;"/><ellipse cx="527.0833" cy="507.9102" fill="#222222" rx="12.5" ry="12.5" style="stroke:#222222;stroke-width:2.0833333333333335;"/><rect fill="#F1F1F1" height="73.112" rx="26.0417" ry="26.0417" style="stroke:#181818;stroke-width:1.0416666666666667;" width="229.1667" x="196.875" y="572.4935"/><text fill="#000000" font-family="sans-serif" font-size="25" lengthAdjust="spacing" textLength="47.9167" x="217.7083" y="619.279">HAL</text><text fill="#000000" font-family="sans-serif" font-size="25" lengthAdjust="spacing" textLength="6.25" x="265.625" y="619.279">&#160;</text><text fill="#000000" font-family="sans-serif" font-size="25" lengthAdjust="spacing" textLength="133.3333" x="271.875" y="619.279">Initialization</text><rect fill="#F1F1F1" height="73.112" rx="26.0417" ry="26.0417" style="stroke:#181818;stroke-width:1.0416666666666667;" width="256.25" x="183.3333" y="687.2721"/><text fill="#000000" font-family="sans-serif" font-size="25" lengthAdjust="spacing" textLength="75" x="204.1667" y="734.0576">Initiate</text><text fill="#000000" font-family="sans-serif" font-size="25" lengthAdjust="spacing" textLength="6.25" x="279.1667" y="734.0576">&#160;</text><text fill="#000000" font-family="sans-serif" font-size="25" lengthAdjust="spacing" textLength="133.3333" x="285.4167" y="734.0576">Peripherals</text><rect fill="#F1F1F1" height="73.112" rx="26.0417" ry="26.0417" style="stroke:#181818;stroke-width:1.0416666666666667;" width="320.8333" x="151.0417" y="802.0508"/><text fill="#000000" font-family="sans-serif" font-size="25" lengthAdjust="spacing" textLength="75" x="171.875" y="848.8363">Initiate</text><text fill="#000000" font-family="sans-serif" font-size="25" lengthAdjust="spacing" textLength="6.25" x="246.875" y="848.8363">&#160;</text><text fill="#000000" font-family="sans-serif" font-size="25" lengthAdjust="spacing" textLength="197.9167" x="253.125" y="848.8363">Communications</text><ellipse cx="311.4583" cy="939.7461" fill="none" rx="22.9167" ry="22.9167" style="stroke:#222222;stroke-width:2.0833333333333335;"/><ellipse cx="311.4583" cy="939.7461" fill="#222222" rx="12.5" ry="12.5" style="stroke:#222222;stroke-width:2.0833333333333335;"/><line style="stroke:#000000;stroke-width:2.0833333333333335;" x1="311.4583" x2="311.4583" y1="142.9362" y2="184.6029"/><polygon fill="#000000" points="303.125,163.7695,311.4583,184.6029,319.7917,163.7695,311.4583,172.1029" style="stroke:#000000;stroke-width:2.0833333333333335;"/><line style="stroke:#000000;stroke-width:2.0833333333333335;" x1="527.0833" x2="527.0833" y1="443.3268" y2="484.9935"/><polygon fill="#000000" points="518.75,464.1602,527.0833,484.9935,535.4167,464.1602,527.0833,472.4935" style="stroke:#000000;stroke-width:2.0833333333333335;"/><line style="stroke:#000000;stroke-width:2.0833333333333335;" x1="116.6667" x2="95.8333" y1="324.3815" y2="324.3815"/><line style="stroke:#000000;stroke-width:2.0833333333333335;" x1="95.8333" x2="95.8333" y1="324.3815" y2="370.2148"/><polygon fill="#000000" points="87.5,349.3815,95.8333,370.2148,104.1667,349.3815,95.8333,357.7148" style="stroke:#000000;stroke-width:2.0833333333333335;"/><line style="stroke:#000000;stroke-width:2.0833333333333335;" x1="506.25" x2="527.0833" y1="324.3815" y2="324.3815"/><line style="stroke:#000000;stroke-width:2.0833333333333335;" x1="527.0833" x2="527.0833" y1="324.3815" y2="370.2148"/><polygon fill="#000000" points="518.75,349.3815,527.0833,370.2148,535.4167,349.3815,527.0833,357.7148" style="stroke:#000000;stroke-width:2.0833333333333335;"/><line style="stroke:#000000;stroke-width:2.0833333333333335;" x1="95.8333" x2="95.8333" y1="443.3268" y2="541.2435"/><line style="stroke:#000000;stroke-width:2.0833333333333335;" x1="95.8333" x2="311.4583" y1="541.2435" y2="541.2435"/><line style="stroke:#000000;stroke-width:2.0833333333333335;" x1="311.4583" x2="311.4583" y1="541.2435" y2="572.4935"/><polygon fill="#000000" points="303.125,551.6602,311.4583,572.4935,319.7917,551.6602,311.4583,559.9935" style="stroke:#000000;stroke-width:2.0833333333333335;"/><line style="stroke:#000000;stroke-width:2.0833333333333335;" x1="311.4583" x2="311.4583" y1="257.7148" y2="299.3815"/><polygon fill="#000000" points="303.125,278.5482,311.4583,299.3815,319.7917,278.5482,311.4583,286.8815" style="stroke:#000000;stroke-width:2.0833333333333335;"/><line style="stroke:#000000;stroke-width:2.0833333333333335;" x1="311.4583" x2="311.4583" y1="645.6055" y2="687.2721"/><polygon fill="#000000" points="303.125,666.4388,311.4583,687.2721,319.7917,666.4388,311.4583,674.7721" style="stroke:#000000;stroke-width:2.0833333333333335;"/><line style="stroke:#000000;stroke-width:2.0833333333333335;" x1="311.4583" x2="311.4583" y1="760.3841" y2="802.0508"/><polygon fill="#000000" points="303.125,781.2174,311.4583,802.0508,319.7917,781.2174,311.4583,789.5508" style="stroke:#000000;stroke-width:2.0833333333333335;"/><line style="stroke:#000000;stroke-width:2.0833333333333335;" x1="311.4583" x2="311.4583" y1="875.1628" y2="916.8294"/><polygon fill="#000000" points="303.125,895.9961,311.4583,916.8294,319.7917,895.9961,311.4583,904.3294" style="stroke:#000000;stroke-width:2.0833333333333335;"/><!--SRC=[TP5DQm8n48Rl-HLpr9iMUd4FHQHVO45GslEucTqTDZi9oOZMql_UxDfgApI749xvUEUTf9ObOCGEFWpaOmF3pMGol5E3rkzPQgZG9HeOnkZt3rvqpKU2wSsfY2hSEVq7R-YWSyUrT2GAPRueNdfj6YvRePHWUe4Bxto4hSEo_Qjw7UZmy99hiQQJyFVa-uZXZQqsPo_YBQq3bhsRsnEAAEqLiXofLFO2ZYe5zH2vRjHy6gEiZk1PM1aT7x7FCYOfHZMpCoPunSYuTPGAOxY2qICcM9551wj-pPJDfvpasDwDGHiI6BrJ6cVvsI8RPDbHOIYl6qRY1tpVBomhLvnL29RUXoBpf3uO4ikLCREd-V9gjk9dgbooeiYXePX_yJTU-AxR2PT3Vexq7Ry0]--></g></svg>