<?xml version="1.0" encoding="us-ascii" standalone="no"?><svg xmlns="http://www.w3.org/2000/svg" xmlns:xlink="http://www.w3.org/1999/xlink" contentStyleType="text/css" height="1089.5833px" preserveAspectRatio="none" style="width:527px;height:1089px;background:#FFFFFF;" version="1.1" viewBox="0 0 527 1089" width="527.0833px" zoomAndPan="magnify"><defs/><g><text fill="#000000" font-family="sans-serif" font-size="29.1667" font-weight="bold" lengthAdjust="spacing" textLength="152.0833" x="184.375" y="71.9442">Main Loop</text><ellipse cx="232.2917" cy="122.1029" fill="#222222" rx="20.8333" ry="20.8333" style="stroke:#222222;stroke-width:2.0833333333333335;"/><rect fill="#F1F1F1" height="73.112" rx="26.0417" ry="26.0417" style="stroke:#181818;stroke-width:1.0416666666666667;" width="289.5833" x="87.5" y="276.2695"/><text fill="#000000" font-family="sans-serif" font-size="25" lengthAdjust="spacing" textLength="6.25" x="108.3333" y="323.055">&#160;</text><text fill="#000000" font-family="sans-serif" font-size="25" lengthAdjust="spacing" textLength="62.5" x="114.5833" y="323.055">Read</text><text fill="#000000" font-family="sans-serif" font-size="25" lengthAdjust="spacing" textLength="6.25" x="177.0833" y="323.055">&#160;</text><text fill="#000000" font-family="sans-serif" font-size="25" lengthAdjust="spacing" textLength="41.6667" x="183.3333" y="323.055">can</text><text fill="#000000" font-family="sans-serif" font-size="25" lengthAdjust="spacing" textLength="6.25" x="225" y="323.055">&#160;</text><text fill="#000000" font-family="sans-serif" font-size="25" lengthAdjust="spacing" textLength="125" x="231.25" y="323.055">messages</text><rect fill="#F1F1F1" height="73.112" rx="26.0417" ry="26.0417" style="stroke:#181818;stroke-width:1.0416666666666667;" width="245.8333" x="109.375" y="391.0482"/><text fill="#000000" font-family="sans-serif" font-size="25" lengthAdjust="spacing" textLength="6.25" x="130.2083" y="437.8337">&#160;</text><text fill="#000000" font-family="sans-serif" font-size="25" lengthAdjust="spacing" textLength="83.3333" x="136.4583" y="437.8337">Update</text><text fill="#000000" font-family="sans-serif" font-size="25" lengthAdjust="spacing" textLength="6.25" x="219.7917" y="437.8337">&#160;</text><text fill="#000000" font-family="sans-serif" font-size="25" lengthAdjust="spacing" textLength="35.4167" x="226.0417" y="437.8337">the</text><text fill="#000000" font-family="sans-serif" font-size="25" lengthAdjust="spacing" textLength="6.25" x="261.4583" y="437.8337">&#160;</text><text fill="#000000" font-family="sans-serif" font-size="25" lengthAdjust="spacing" textLength="66.6667" x="267.7083" y="437.8337">LEDS</text><rect fill="#F1F1F1" height="73.112" rx="26.0417" ry="26.0417" style="stroke:#181818;stroke-width:1.0416666666666667;" width="183.3333" x="140.625" y="609.0495"/><text fill="#000000" font-family="sans-serif" font-size="25" lengthAdjust="spacing" textLength="85.4167" x="161.4583" y="655.835">Display</text><text fill="#000000" font-family="sans-serif" font-size="25" lengthAdjust="spacing" textLength="6.25" x="246.875" y="655.835">&#160;</text><text fill="#000000" font-family="sans-serif" font-size="25" lengthAdjust="spacing" textLength="50" x="253.125" y="655.835">alert</text><polygon fill="#F1F1F1" points="66.6667,505.8268,397.9167,505.8268,422.9167,530.8268,397.9167,555.8268,66.6667,555.8268,41.6667,530.8268,66.6667,505.8268" style="stroke:#181818;stroke-width:1.0416666666666667;"/><text fill="#000000" font-family="sans-serif" font-size="25" lengthAdjust="spacing" textLength="39.5833" x="240.625" y="581.779">yes</text><text fill="#000000" font-family="sans-serif" font-size="25" lengthAdjust="spacing" textLength="50" x="66.6667" y="541.0563">AMS</text><text fill="#000000" font-family="sans-serif" font-size="25" lengthAdjust="spacing" textLength="6.25" x="116.6667" y="541.0563">&#160;</text><text fill="#000000" font-family="sans-serif" font-size="25" lengthAdjust="spacing" textLength="54.1667" x="122.9167" y="541.0563">error</text><text fill="#000000" font-family="sans-serif" font-size="25" lengthAdjust="spacing" textLength="6.25" x="177.0833" y="541.0563">&#160;</text><text fill="#000000" font-family="sans-serif" font-size="25" lengthAdjust="spacing" textLength="56.25" x="183.3333" y="541.0563">state</text><text fill="#000000" font-family="sans-serif" font-size="25" lengthAdjust="spacing" textLength="6.25" x="239.5833" y="541.0563">&#160;</text><text fill="#000000" font-family="sans-serif" font-size="25" lengthAdjust="spacing" textLength="37.5" x="245.8333" y="541.0563">OR</text><text fill="#000000" font-family="sans-serif" font-size="25" lengthAdjust="spacing" textLength="6.25" x="283.3333" y="541.0563">&#160;</text><text fill="#000000" font-family="sans-serif" font-size="25" lengthAdjust="spacing" textLength="39.5833" x="289.5833" y="541.0563">AIR</text><text fill="#000000" font-family="sans-serif" font-size="25" lengthAdjust="spacing" textLength="6.25" x="329.1667" y="541.0563">&#160;</text><text fill="#000000" font-family="sans-serif" font-size="25" lengthAdjust="spacing" textLength="62.5" x="335.4167" y="541.0563">close</text><polygon fill="#F1F1F1" points="232.2917,723.8281,257.2917,748.8281,232.2917,773.8281,207.2917,748.8281,232.2917,723.8281" style="stroke:#181818;stroke-width:1.0416666666666667;"/><rect fill="#F1F1F1" height="73.112" rx="26.0417" ry="26.0417" style="stroke:#181818;stroke-width:1.0416666666666667;" width="264.5833" x="100" y="815.4948"/><text fill="#000000" font-family="sans-serif" font-size="25" lengthAdjust="spacing" textLength="6.25" x="120.8333" y="862.2803">&#160;</text><text fill="#000000" font-family="sans-serif" font-size="25" lengthAdjust="spacing" textLength="83.3333" x="127.0833" y="862.2803">Update</text><text fill="#000000" font-family="sans-serif" font-size="25" lengthAdjust="spacing" textLength="6.25" x="210.4167" y="862.2803">&#160;</text><text fill="#000000" font-family="sans-serif" font-size="25" lengthAdjust="spacing" textLength="35.4167" x="216.6667" y="862.2803">the</text><text fill="#000000" font-family="sans-serif" font-size="25" lengthAdjust="spacing" textLength="6.25" x="252.0833" y="862.2803">&#160;</text><text fill="#000000" font-family="sans-serif" font-size="25" lengthAdjust="spacing" textLength="85.4167" x="258.3333" y="862.2803">Display</text><polygon fill="#F1F1F1" points="232.2917,184.6029,257.2917,209.6029,232.2917,234.6029,207.2917,209.6029,232.2917,184.6029" style="stroke:#181818;stroke-width:1.0416666666666667;"/><polygon fill="#F1F1F1" points="207.2917,930.2734,257.2917,930.2734,282.2917,955.2734,257.2917,980.2734,207.2917,980.2734,182.2917,955.2734,207.2917,930.2734" style="stroke:#181818;stroke-width:1.0416666666666667;"/><text fill="#000000" font-family="sans-serif" font-size="25" lengthAdjust="spacing" textLength="43.75" x="210.4167" y="965.5029">true</text><ellipse cx="232.2917" cy="1044.8568" fill="none" rx="22.9167" ry="22.9167" style="stroke:#222222;stroke-width:2.0833333333333335;"/><ellipse cx="232.2917" cy="1044.8568" fill="#222222" rx="12.5" ry="12.5" style="stroke:#222222;stroke-width:2.0833333333333335;"/><line style="stroke:#000000;stroke-width:2.0833333333333335;" x1="232.2917" x2="232.2917" y1="349.3815" y2="391.0482"/><polygon fill="#000000" points="223.9583,370.2148,232.2917,391.0482,240.625,370.2148,232.2917,378.5482" style="stroke:#000000;stroke-width:2.0833333333333335;"/><line style="stroke:#000000;stroke-width:2.0833333333333335;" x1="232.2917" x2="232.2917" y1="555.8268" y2="609.0495"/><polygon fill="#000000" points="223.9583,588.2161,232.2917,609.0495,240.625,588.2161,232.2917,596.5495" style="stroke:#000000;stroke-width:2.0833333333333335;"/><line style="stroke:#000000;stroke-width:2.0833333333333335;" x1="422.9167" x2="447.9167" y1="530.8268" y2="530.8268"/><polygon fill="#000000" points="439.5833,624.7721,447.9167,645.6055,456.25,624.7721,447.9167,633.1055" style="stroke:#000000;stroke-width:2.0833333333333335;"/><line style="stroke:#000000;stroke-width:2.0833333333333335;" x1="447.9167" x2="447.9167" y1="530.8268" y2="748.8281"/><line style="stroke:#000000;stroke-width:2.0833333333333335;" x1="447.9167" x2="257.2917" y1="748.8281" y2="748.8281"/><polygon fill="#000000" points="278.125,740.4948,257.2917,748.8281,278.125,757.1615,269.7917,748.8281" style="stroke:#000000;stroke-width:2.0833333333333335;"/><line style="stroke:#000000;stroke-width:2.0833333333333335;" x1="232.2917" x2="232.2917" y1="682.1615" y2="723.8281"/><polygon fill="#000000" points="223.9583,702.9948,232.2917,723.8281,240.625,702.9948,232.2917,711.3281" style="stroke:#000000;stroke-width:2.0833333333333335;"/><line style="stroke:#000000;stroke-width:2.0833333333333335;" x1="232.2917" x2="232.2917" y1="464.1602" y2="505.8268"/><polygon fill="#000000" points="223.9583,484.9935,232.2917,505.8268,240.625,484.9935,232.2917,493.3268" style="stroke:#000000;stroke-width:2.0833333333333335;"/><line style="stroke:#000000;stroke-width:2.0833333333333335;" x1="232.2917" x2="232.2917" y1="773.8281" y2="815.4948"/><polygon fill="#000000" points="223.9583,794.6615,232.2917,815.4948,240.625,794.6615,232.2917,802.9948" style="stroke:#000000;stroke-width:2.0833333333333335;"/><line style="stroke:#000000;stroke-width:2.0833333333333335;" x1="232.2917" x2="232.2917" y1="234.6029" y2="276.2695"/><polygon fill="#000000" points="223.9583,255.4362,232.2917,276.2695,240.625,255.4362,232.2917,263.7695" style="stroke:#000000;stroke-width:2.0833333333333335;"/><line style="stroke:#000000;stroke-width:2.0833333333333335;" x1="282.2917" x2="472.9167" y1="955.2734" y2="955.2734"/><polygon fill="#000000" points="464.5833,593.4245,472.9167,572.5911,481.25,593.4245,472.9167,585.0911" style="stroke:#000000;stroke-width:2.0833333333333335;"/><line style="stroke:#000000;stroke-width:2.0833333333333335;" x1="472.9167" x2="472.9167" y1="209.6029" y2="955.2734"/><line style="stroke:#000000;stroke-width:2.0833333333333335;" x1="472.9167" x2="257.2917" y1="209.6029" y2="209.6029"/><polygon fill="#000000" points="278.125,201.2695,257.2917,209.6029,278.125,217.9362,269.7917,209.6029" style="stroke:#000000;stroke-width:2.0833333333333335;"/><line style="stroke:#000000;stroke-width:2.0833333333333335;" x1="232.2917" x2="232.2917" y1="888.6068" y2="930.2734"/><polygon fill="#000000" points="223.9583,909.4401,232.2917,930.2734,240.625,909.4401,232.2917,917.7734" style="stroke:#000000;stroke-width:2.0833333333333335;"/><line style="stroke:#000000;stroke-width:2.0833333333333335;" x1="232.2917" x2="232.2917" y1="142.9362" y2="184.6029"/><polygon fill="#000000" points="223.9583,163.7695,232.2917,184.6029,240.625,163.7695,232.2917,172.1029" style="stroke:#000000;stroke-width:2.0833333333333335;"/><line style="stroke:#000000;stroke-width:2.0833333333333335;" x1="232.2917" x2="232.2917" y1="980.2734" y2="1021.9401"/><polygon fill="#000000" points="223.9583,1001.1068,232.2917,1021.9401,240.625,1001.1068,232.2917,1009.4401" style="stroke:#000000;stroke-width:2.0833333333333335;"/><!--SRC=[TOz1QyCm38Nl_XKwjhTsi4jpAki6WvP1qx6p5Yk9Y6CRMINjnlxxtAQij30VXFaaFRsNElOH1NluDf2VZGmFizdvdrgqOM3VG8qkqPcXI1XUWjUIlmZc3-CIrRXt-W_UqK6NZXlVarUeSY6vQkrQhZfFAS7y2f-22mAV3glkzkfzeyV39kzYG-FXY_D1C7wmrVOlYm-MoeZLAStZY0HzTuSi2rNAmOEZMa4323UjcXzZbDKHR90zh4E8nYH5KICK2TKiO4jeeK8F_UWd5Hc-HujAe2t1-dbL5ePhc2mt9L0E990bSlTj2ylNBLGk99gUPZrCZfIcPqUB5QVey0ZeIBGmv2tNvbRwCbAOYniOMivU9ofxccQV8Vu2]--></g></svg>